<svg width="93" height="18" viewBox="0 0 93 18" fill="none" xmlns="http://www.w3.org/2000/svg">
<path d="M6.065 18.0001V9.8041H8.83L9.241 6.5951H6.065V4.5511C6.065 3.6251 6.323 2.9911 7.652 2.9911H9.336V0.130099C8.51664 0.0422899 7.69305 -0.000108329 6.869 0.00309885C4.425 0.00309885 2.747 1.4951 2.747 4.2341V6.5891H0V9.7981H2.753V18.0001H6.065Z" fill="#3A5892"/>
<path d="M29.9538 9.00242C29.9538 11.5578 27.8914 13.6202 25.3359 13.6202C22.7805 13.6202 20.7181 11.5578 20.7181 9.00242C20.7181 6.44699 22.7805 4.38464 25.3359 4.38464C27.8914 4.38464 29.9538 6.44699 29.9538 9.00242ZM22.3347 9.00242C22.3347 10.655 23.6833 12.0036 25.3359 12.0036C26.9886 12.0036 28.3372 10.655 28.3372 9.00242C28.3372 7.34983 26.9886 6.0012 25.3359 6.0012C23.6833 6.0012 22.3347 7.34983 22.3347 9.00242ZM31.2192 4.19551C31.2192 4.79215 30.7373 5.27397 30.1407 5.27397C29.544 5.27397 29.0622 4.79215 29.0622 4.19551C29.0622 3.59887 29.5418 3.11705 30.1407 3.11705C30.2824 3.11687 30.4227 3.14465 30.5536 3.19878C30.6845 3.25292 30.8035 3.33235 30.9037 3.43253C31.0039 3.53271 31.0833 3.65167 31.1374 3.78259C31.1916 3.91352 31.2193 4.05384 31.2192 4.19551ZM25.3359 0.00100366C26.5788 0.0010036 27.8104 -0.0102536 29.0509 0.0595419C30.4919 0.129337 31.7708 0.458054 32.8245 1.51175C33.8805 2.56769 34.2069 3.84428 34.2767 5.28523C34.3465 6.52804 34.3353 7.7596 34.3353 9.00017C34.3353 10.243 34.3465 11.4745 34.2767 12.7151C34.2069 14.1561 33.8782 15.4349 32.8245 16.4886C31.7685 17.5445 30.4919 17.871 29.0509 17.9408C27.8081 18.0106 26.5765 17.9993 25.3359 17.9993C24.0953 17.9993 22.8615 18.0106 21.6209 17.9408C20.18 17.871 18.9011 17.5423 17.8474 16.4886C16.7914 15.4326 16.4649 14.1561 16.3951 12.7151C16.3253 11.4723 16.3366 10.2407 16.3366 9.00017C16.3366 7.75735 16.3253 6.52579 16.3951 5.28523C16.4649 3.84428 16.7937 2.56544 17.8474 1.51175C18.9033 0.455804 20.18 0.129338 21.6209 0.0595423C22.8615 -0.012506 24.0931 0.00100371 25.3359 0.00100366ZM20.0269 1.98231C19.6171 2.14666 19.3109 2.34479 18.9957 2.66225C18.6782 2.97971 18.4801 3.28366 18.3157 3.69343C17.8451 4.87771 17.9509 7.68981 17.9509 9.00242C17.9509 10.315 17.8451 13.1294 18.3134 14.3137C18.4778 14.7234 18.6759 15.0296 18.9934 15.3448C19.3109 15.6623 19.6148 15.8604 20.0246 16.0248C21.2112 16.4931 24.0233 16.3873 25.3359 16.3873C26.6486 16.3873 29.463 16.4931 30.6473 16.0248C31.0571 15.8604 31.3633 15.6623 31.6785 15.3448C31.9937 15.0274 32.1941 14.7234 32.3584 14.3137C32.8267 13.1294 32.7209 10.315 32.7209 9.00242C32.7209 7.68981 32.8267 4.87546 32.3584 3.69118C32.1941 3.28141 31.9959 2.97521 31.6785 2.66C31.361 2.34254 31.0571 2.14441 30.6473 1.98005C29.463 1.51175 26.6486 1.61757 25.3359 1.61757C24.0233 1.61757 21.2111 1.51175 20.0269 1.98231Z" fill="#FB4177"/>
<path d="M62.1498 3.08665C61.3844 3.42581 60.5621 3.65498 59.6977 3.75857C60.5896 3.22487 61.2569 2.38491 61.575 1.3954C60.737 1.89314 59.8199 2.24349 58.8635 2.43123C58.2204 1.74452 57.3685 1.28936 56.4402 1.13642C55.5118 0.983468 54.5589 1.14129 53.7295 1.58538C52.9 2.02947 52.2404 2.73498 51.853 3.59238C51.4656 4.44977 51.3721 5.41109 51.587 6.32706C49.8891 6.24181 48.228 5.80049 46.7117 5.03173C45.1953 4.26297 43.8575 3.18396 42.7852 1.86473C42.4185 2.49723 42.2077 3.23057 42.2077 4.01157C42.2073 4.71464 42.3804 5.40695 42.7117 6.02707C43.0431 6.64719 43.5223 7.17593 44.107 7.5664C43.4289 7.54482 42.7658 7.3616 42.1729 7.03198V7.08698C42.1728 8.07308 42.5139 9.02883 43.1383 9.79206C43.7627 10.5553 44.6319 11.079 45.5984 11.2743C44.9694 11.4446 44.3099 11.4696 43.6698 11.3476C43.9425 12.1961 44.4737 12.9381 45.189 13.4697C45.9044 14.0012 46.768 14.2958 47.6591 14.3121C46.1465 15.4996 44.2783 16.1437 42.3553 16.1409C42.0146 16.141 41.6743 16.1211 41.3359 16.0813C43.288 17.3364 45.5602 18.0025 47.8809 17.9999C55.7368 17.9999 60.0314 11.4934 60.0314 5.8504C60.0314 5.66707 60.0268 5.4819 60.0185 5.29856C60.8539 4.69446 61.5749 3.94639 62.1479 3.0894L62.1498 3.08665Z" fill="#6AB1E8"/>
<path d="M91.6683 2.8242C91.5381 2.27917 91.2844 1.78573 90.9343 1.39634C90.5743 0.994965 90.1331 0.707855 89.6522 0.562105C87.8527 0.00557521 80.6432 0.00557529 80.6432 0.00557529C77.6376 -0.0345481 74.6328 0.141925 71.6457 0.533997C71.1648 0.690515 70.7244 0.984041 70.3636 1.38847C70.009 1.78872 69.7522 2.28229 69.6181 2.82308C69.2958 4.86002 69.1393 6.92829 69.1505 8.99999C69.139 11.0698 69.2952 13.1374 69.6181 15.1769C69.7494 15.7155 70.0052 16.2068 70.3607 16.6037C70.7162 17.0005 71.1589 17.2872 71.6457 17.439C73.4691 17.9944 80.6432 17.9944 80.6432 17.9944C83.6526 18.0346 86.6613 17.8581 89.6522 17.466C90.1331 17.3202 90.5743 17.0331 90.9343 16.6318C91.2843 16.2424 91.5377 15.7489 91.6673 15.2039C91.998 13.1677 92.1588 11.0986 92.1474 9.02585C92.1723 6.94432 92.0117 4.86544 91.6683 2.82308V2.8242ZM78.3512 12.8496V5.15151L84.3495 9.00112L78.3512 12.8496Z" fill="#F0363F"/>
</svg>
