<svg width="20" height="16" viewBox="0 0 20 16" fill="none" xmlns="http://www.w3.org/2000/svg">
<path d="M16.8398 15.2541L19.4223 13.1862C19.6055 13.0403 19.7508 12.867 19.8499 12.676C19.9491 12.4851 20.0001 12.2804 20 12.0736C20 11.6523 19.7937 11.2561 19.4223 10.9591L16.6408 8.73385C16.4584 8.58733 16.2417 8.47109 16.003 8.39178C15.7644 8.31247 15.5084 8.27167 15.25 8.27172C14.7233 8.27172 14.2282 8.43677 13.8568 8.73385L11.8228 10.361C10.7734 9.98013 9.81872 9.45058 9.00485 8.79793C8.18704 8.14691 7.52269 7.38324 7.04369 6.54359L9.07767 4.91643C9.26082 4.77056 9.40613 4.59717 9.50527 4.40624C9.6044 4.2153 9.6554 4.01058 9.65534 3.80383C9.65534 3.38247 9.44903 2.98636 9.07767 2.68928L6.29854 0.46213C6.11586 0.315434 5.89873 0.199084 5.65963 0.119774C5.42052 0.040464 5.16418 -0.000241264 4.90534 4.10149e-07C4.37864 3.87126e-07 3.8835 0.165046 3.51214 0.462129L0.932039 2.52618C0.337379 2.99996 -1.59735e-07 3.65431 -1.89102e-07 4.32615C-1.95298e-07 4.46789 0.0145624 4.60381 0.0436895 4.73779C0.582523 7.35523 2.32282 9.95131 4.93932 12.0464C7.5534 14.1396 10.7961 15.5299 14.0777 15.9668C15.0801 16.0988 16.1117 15.8328 16.8398 15.2541Z" fill="white"/>
</svg>
