<svg width="22" height="17" viewBox="0 0 22 17" fill="none" xmlns="http://www.w3.org/2000/svg">
<path d="M21.1498 2.08674C20.3844 2.42591 19.5622 2.65507 18.6977 2.75866C19.5897 2.22497 20.2569 1.385 20.5751 0.39549C19.7371 0.89323 18.82 1.24359 17.8636 1.43132C17.2204 0.744616 16.3686 0.289456 15.4402 0.136508C14.5119 -0.0164401 13.559 0.141382 12.7296 0.585472C11.9001 1.02956 11.2405 1.73507 10.8531 2.59247C10.4657 3.44987 10.3722 4.41118 10.5871 5.32716C8.88913 5.2419 7.22807 4.80058 5.71172 4.03182C4.19537 3.26306 2.8576 2.18405 1.78525 0.864823C1.41858 1.49732 1.20775 2.23066 1.20775 3.01166C1.20734 3.71474 1.38048 4.40705 1.7118 5.02716C2.04313 5.64728 2.5224 6.17602 3.10708 6.56649C2.429 6.54491 1.76588 6.36169 1.17292 6.03207V6.08707C1.17285 7.07317 1.51395 8.02892 2.13833 8.79215C2.76272 9.55539 3.63194 10.0791 4.5985 10.2744C3.96947 10.4446 3.30997 10.4697 2.66983 10.3477C2.94254 11.1962 3.47374 11.9382 4.18909 12.4698C4.90443 13.0013 5.76809 13.2959 6.65917 13.3122C5.14651 14.4997 3.2784 15.1438 1.35533 15.141C1.01468 15.1411 0.674318 15.1212 0.335999 15.0814C2.28802 16.3365 4.56031 17.0026 6.881 17C14.7368 17 19.0314 10.4935 19.0314 4.85049C19.0314 4.66716 19.0268 4.48199 19.0186 4.29866C19.8539 3.69455 20.575 2.94648 21.148 2.08949L21.1498 2.08674Z" fill="white"/>
</svg>
