<svg width="19" height="18" viewBox="0 0 19 18" fill="none" xmlns="http://www.w3.org/2000/svg">
<path d="M13.9539 9.00242C13.9539 11.5578 11.8915 13.6202 9.336 13.6202C6.78052 13.6202 4.71813 11.5578 4.71813 9.00242C4.71813 6.44699 6.78052 4.38464 9.336 4.38464C11.8915 4.38464 13.9539 6.44699 13.9539 9.00242ZM6.33472 9.00242C6.33472 10.655 7.68338 12.0036 9.336 12.0036C10.9886 12.0036 12.3373 10.655 12.3373 9.00242C12.3373 7.34983 10.9886 6.0012 9.336 6.0012C7.68338 6.0012 6.33472 7.34983 6.33472 9.00242ZM15.2192 4.19551C15.2192 4.79215 14.7374 5.27397 14.1407 5.27397C13.5441 5.27397 13.0623 4.79215 13.0623 4.19551C13.0623 3.59887 13.5418 3.11705 14.1407 3.11705C14.2824 3.11687 14.4227 3.14465 14.5537 3.19878C14.6846 3.25292 14.8036 3.33235 14.9037 3.43253C15.0039 3.53271 15.0834 3.65167 15.1375 3.78259C15.1916 3.91352 15.2194 4.05384 15.2192 4.19551ZM9.336 0.00100366C10.5788 0.0010036 11.8104 -0.0102536 13.051 0.0595419C14.492 0.129337 15.7708 0.458054 16.8246 1.51175C17.8805 2.56769 18.207 3.84428 18.2768 5.28523C18.3466 6.52804 18.3353 7.7596 18.3353 9.00017C18.3353 10.243 18.3466 11.4745 18.2768 12.7151C18.207 14.1561 17.8783 15.4349 16.8246 16.4886C15.7686 17.5445 14.492 17.871 13.051 17.9408C11.8082 18.0106 10.5766 17.9993 9.336 17.9993C8.09541 17.9993 6.86158 18.0106 5.62099 17.9408C4.18001 17.871 2.90115 17.5423 1.84744 16.4886C0.791475 15.4326 0.465004 14.1561 0.395208 12.7151C0.325411 11.4723 0.336668 10.2407 0.336668 9.00017C0.336668 7.75735 0.32541 6.52579 0.395208 5.28523C0.465003 3.84428 0.793727 2.56544 1.84744 1.51175C2.9034 0.455804 4.18001 0.129338 5.62099 0.0595423C6.86158 -0.012506 8.09316 0.00100371 9.336 0.00100366ZM4.02691 1.98231C3.61713 2.14666 3.31093 2.34479 2.99571 2.66225C2.67825 2.97971 2.48012 3.28366 2.31576 3.69343C1.84519 4.87771 1.95101 7.68981 1.95101 9.00242C1.95101 10.315 1.84519 13.1294 2.3135 14.3137C2.47786 14.7234 2.676 15.0296 2.99346 15.3448C3.31093 15.6623 3.61488 15.8604 4.02466 16.0248C5.21121 16.4931 8.02336 16.3873 9.336 16.3873C10.6486 16.3873 13.463 16.4931 14.6473 16.0248C15.0571 15.8604 15.3633 15.6623 15.6785 15.3448C15.9937 15.0274 16.1941 14.7234 16.3585 14.3137C16.8268 13.1294 16.721 10.315 16.721 9.00242C16.721 7.68981 16.8268 4.87546 16.3585 3.69118C16.1941 3.28141 15.996 2.97521 15.6785 2.66C15.3611 2.34254 15.0571 2.14441 14.6473 1.98005C13.463 1.51175 10.6486 1.61757 9.336 1.61757C8.02336 1.61757 5.21121 1.51175 4.02691 1.98231Z" fill="white"/>
</svg>
