<svg width="24" height="18" viewBox="0 0 24 18" fill="none" xmlns="http://www.w3.org/2000/svg">
<path d="M22.6682 2.8242C22.538 2.27917 22.2844 1.78573 21.9343 1.39634C21.5742 0.994965 21.133 0.707855 20.6522 0.562105C18.8527 0.00557521 11.6431 0.00557529 11.6431 0.00557529C8.63757 -0.0345481 5.63273 0.141925 2.6456 0.533997C2.16476 0.690515 1.72434 0.984041 1.36352 1.38847C1.00898 1.78872 0.752185 2.28229 0.618036 2.82308C0.295786 4.86002 0.139214 6.92829 0.150433 8.99999C0.138934 11.0698 0.295122 13.1374 0.618036 15.1769C0.74931 15.7155 1.00515 16.2068 1.36064 16.6037C1.71614 17.0005 2.15883 17.2872 2.6456 17.439C4.46906 17.9944 11.6431 17.9944 11.6431 17.9944C14.6525 18.0346 17.6612 17.8581 20.6522 17.466C21.133 17.3202 21.5742 17.0331 21.9343 16.6318C22.2842 16.2424 22.5376 15.7489 22.6673 15.2039C22.9979 13.1677 23.1587 11.0986 23.1473 9.02585C23.1722 6.94432 23.0116 4.86544 22.6682 2.82308V2.8242ZM9.35111 12.8496V5.15151L15.3495 9.00112L9.35111 12.8496Z" fill="white"/>
</svg>
